<?xml version="1.0" encoding="utf-8"?>
<!-- Generator: Adobe Illustrator 24.1.1, SVG Export Plug-In . SVG Version: 6.00 Build 0)  -->
<svg version="1.1" id="Layer_1" xmlns="http://www.w3.org/2000/svg" xmlns:xlink="http://www.w3.org/1999/xlink" x="0px" y="0px"
	 viewBox="0 0 204 204" style="enable-background:new 0 0 204 204;" xml:space="preserve">
<style type="text/css">
	.st0{fill:#FF6767;}
	.st1{fill:#FFFFFF;}
	.st2{fill:none;stroke:#F3D07F;stroke-width:4.3752;stroke-linecap:round;stroke-linejoin:round;stroke-miterlimit:10;}
	.st3{fill:#F3D07F;}
	.st4{opacity:0.1;fill:#222221;}
	.st5{opacity:0.1;fill:#272425;}
	.st6{fill:#B89DBF;}
	.st7{fill:none;stroke:#79B9E7;stroke-width:4.3752;stroke-linejoin:round;stroke-miterlimit:10;}
	.st8{fill:#544F49;}
	.st9{fill:#F2F2F2;}
	.st10{fill:none;stroke:#C4C4C3;stroke-width:2.7345;stroke-linecap:round;stroke-linejoin:round;stroke-miterlimit:10;}
	.st11{fill:#3E3E3D;}
	.st12{fill:none;stroke:#3E3E3D;stroke-width:2.7345;stroke-linecap:round;stroke-linejoin:round;stroke-miterlimit:10;}
	.st13{fill:none;stroke:#79B9E7;stroke-width:2.7345;stroke-linecap:round;stroke-linejoin:round;stroke-miterlimit:10;}
	.st14{opacity:0.1;clip-path:url(#SVGID_2_);fill:#222221;}
	.st15{fill:none;stroke:#BB9BC4;stroke-width:0.7921;stroke-linecap:round;stroke-linejoin:round;stroke-miterlimit:10;}
	.st16{opacity:0.6;fill:#544F49;}
	.st17{clip-path:url(#SVGID_4_);fill:none;stroke:#FFFFFF;stroke-width:4.3752;stroke-linejoin:round;stroke-miterlimit:10;}
	.st18{clip-path:url(#SVGID_6_);fill:none;stroke:#FFFFFF;stroke-width:4.3752;stroke-linejoin:round;stroke-miterlimit:10;}
</style>
<rect class="st0" width="204.2" height="204.2"/>
<g>
	<path class="st1" d="M102,16.6c-47.2,0-85.4,38.3-85.4,85.4c0,47.2,38.3,85.4,85.4,85.4c47.2,0,85.4-38.2,85.4-85.4
		C187.4,54.8,149.2,16.6,102,16.6z M147.1,82.3c-1.7,7-6.1,13.2-11.8,17.6c0.3,0.4,0.7,0.7,1,1.1c4.5,5.8,6,13.7,4,21.6
		c-3.8,15.1-18.7,27-33.9,27H84.9c-9,0-16.8-3.6-21.8-10.1c-5.1-6.6-6.8-15.6-4.5-24.7l12-48.1c1.7-7,8.4-12.2,15.4-12.2h40.1
		c7.1,0,13.4,2.9,17.4,8.1C147.6,67.9,148.9,75.1,147.1,82.3z"/>
	<path class="st1" d="M126.1,68.9H86c-0.5,0-1.4,0.8-1.5,1.3l-12,48.1c-1.2,4.9-0.5,9.3,1.9,12.4c2.3,2.9,6,4.5,10.5,4.5h21.4
		c8.7,0,17.8-7.4,20-16.1c0.9-3.7,0.4-7-1.4-9.3c-1.7-2.1-4.4-3.3-7.7-3.3c-0.2,0-0.4,0-0.5,0H94.3v-0.1l3.6-14.3h18.8
		c0.1,0,0.3,0,0.4,0v0c0,0,0.1,0,0.1,0c6.9-0.3,14.2-6.4,15.9-13.3c0.7-2.9,0.4-5.5-1-7.3C130.9,69.8,128.8,68.9,126.1,68.9z"/>
</g>
<g>
	<path class="st2" d="M203.5,180c0,0,29.3,46.6,40.1-20.7"/>
	<path class="st3" d="M230.7,158l8.3,3.7c1.3,0.6,2.9,0,3.5-1.4l0,0c0.6-1.3,0-2.9-1.4-3.5l-8.3-3.7c-1.3-0.6-2.9,0-3.5,1.4l0,0
		C228.7,155.8,229.3,157.4,230.7,158z"/>
	<path class="st3" d="M242.4,162.7L242.4,162.7c-3.7-0.1-6.6-3.2-6.4-6.9l0.4-11c0.1-3.7,3.2-6.6,6.9-6.4h0c3.7,0.1,6.6,3.2,6.4,6.9
		l-0.4,11C249.2,159.9,246.1,162.8,242.4,162.7z"/>
	<path class="st2" d="M174.6,241.6c5,15.3,7.5,28,10.4,45.8"/>
	<path class="st2" d="M196.2,234.6c0,0,25.6,33.7-19.7,49.6"/>
	<path class="st4" d="M194.6,236c0,0,0.8,1.4,1.2,1.9c0.4,0.5,1.1,1.9,1.1,1.9s3.7-1,4.4-1.2c-0.4-0.8-2.2-3.7-2.2-3.7L194.6,236z"
		/>
	<path class="st4" d="M204.8,178.2c0,0,0.6,2.3,1,2.8c0.4,0.5,2.7,8.3,2.7,8.3s1.1,1.3,1.6,1.7c-0.4-0.8-2.5-9.1-2.5-9.1
		L204.8,178.2z"/>
	<polygon class="st4" points="172.7,242.6 173.8,246.2 177.9,244.8 176.6,240.8 	"/>
	<polygon class="st4" points="181.4,279 181.5,279.8 185.6,277.7 185.5,277.2 	"/>
	<ellipse transform="matrix(0.9772 -0.2123 0.2123 0.9772 -60.4997 48.8113)" class="st5" cx="197" cy="306.1" rx="55.6" ry="5.3"/>
	<path class="st6" d="M181.3,303.6c0,0,14-4.2,28.9-2.3l0.2,1.4c0.1,0.6-0.2,1.2-0.6,1.6c-3.3,2.7-16.8,5.9-26.9,3.3
		c-0.8-0.2-1.3-0.9-1.3-1.6L181.3,303.6z"/>
	<line class="st7" x1="185" y1="287.4" x2="185.4" y2="289.6"/>
	<line class="st7" x1="176.4" y1="284.2" x2="173.2" y2="285.2"/>
	<path class="st8" d="M181.1,298.7c-0.1-1.8,1.5-3.5,3-3.7c1.6-0.2,1.1,1.1,2.4,1.5c0.9,0.3,1.7,0.1,2.3-0.3
		c0.9-0.7,1.6-1.7,3.3-2.1c7.2-0.4,18.1,1.5,18.1,7c-6.2,4.8-23.1,5.7-28.9,3C181.3,302.4,181.2,300.1,181.1,298.7z"/>
	<path class="st6" d="M159.1,284c0,0,5,13.2,6.8,27.8l-2.1,0.5c-0.6,0.1-1.2-0.1-1.6-0.6c-3.2-4.2-7.8-20.2-8.1-25.1
		c0-0.7,0.4-1.4,1.2-1.6C158.6,284.1,159.1,284,159.1,284z"/>
	<path class="st8" d="M162.9,282.9c0.8-0.2,1.7-0.1,2,1s-2.7,1.6-1.7,4.7c1.1,3.1,4.2,1.7,5.1,4.7c2,7,4,17-2.4,18.5
		c-6.2-10.9-8.4-20.4-9-27.2C159.4,283.9,161.5,283.3,162.9,282.9z"/>
	<path class="st9" d="M128.8,160.2c28.7,42.6,29,62.6,32.7,86.9c0.1,0.8,1,1.2,1.7,0.9c12.8-6.7,34.4-14.3,51.2-13.1
		c1.1,0.1,1.9-0.8,1.8-1.8c-4.5-54.7-25.4-85.4-31.3-93.5c0,0,3.9-14.1-7.2-18.7c-0.3-0.1-0.7,0.2-0.6,0.5
		c2.5,7.4-0.6,13.9-0.6,13.9c-0.5,0.3-1.6-8.3-5-9.3c-0.3-0.1-0.6,0.2-0.5,0.5C173.3,151,142.9,161.1,128.8,160.2"/>
	<path class="st10" d="M165.3,209.9c4.8-2.7,11-5.5,18.3-7.8c6.7-2,12.8-3.1,17.9-3.6"/>
	<path class="st10" d="M168.3,219.9c5-2.4,11.2-4.9,18.7-6.7c6.8-1.6,13-2.3,18.1-2.5"/>
	<path class="st10" d="M170.6,231.3c5-2.4,11.2-4.9,18.7-6.7c6.8-1.7,12.9-2.3,18.1-2.6"/>
	<path class="st4" d="M190.5,189c-0.6-2.1-1.5-3.9-2.3-5.4c-0.5-0.9-1.7-1.3-2.7-0.7c-1,0.6-2.1,1.3-3.1,2.3
		c-1.5,1.4-2.5,2.8-3.2,3.9c-0.1,0.1-0.1,0.2-0.1,0.3c-1.1-1.2-2.8-1.7-4.4-1.1c-1.4,0.5-2.3,1.6-2.6,2.9c-1.5-0.4-3.2-0.9-5.2-1.1
		c-1.9-0.3-3.7-0.3-5.3-0.3c-1.3,0-2.2,1.3-1.8,2.5c0.5,1.5,1,3,1.7,4.6c0.8,1.9,1.6,3.5,2.5,5c0.6,1.1,2.2,1.3,3.1,0.4
		c1.1-1.1,2.3-2.3,3.8-3.5c0.8-0.7,1.7-1.2,2.5-1.7c0,0,0,0,0,0c0.9,1.8,3,2.6,5,2h0c1.8-0.6,2.8-2.3,2.8-4.1c0.2,0,0.4,0,0.6,0
		c1-0.2,2.2-0.3,3.5-0.3c1.4,0,2.7,0.1,3.8,0.3c1.3,0.2,2.5-0.9,2.3-2.2C191.1,191.7,190.9,190.4,190.5,189z"/>
	<path class="st4" d="M187.1,152.1c-0.4-0.5-1.1-0.7-1.6-0.4l-17.4,7.5c-0.7,0.3-1,1.1-0.7,1.8c0,0.1,0.2,0.5,0.5,1
		c-2.1,0-3.8,0.8-5.1,2.5c-0.3-0.7-0.6-1.2-0.6-1.3c-0.3-0.6-1.1-0.9-1.7-0.6l-18.8,7.2c-0.7,0.3-1,1-0.8,1.7
		c1.6,5,6.8,14.1,15.3,12.2l0,0c0.7-0.1,1.3-0.4,2-0.6c3-1.2,5-3.2,6-5.9c1.1-3.2,0.6-6.7-0.2-9.4c1.2-2.7,2.8-3.4,5.5-2.8
		c2.6,4.1,7.5,9.7,14.4,8.2c0.8-0.2,1.6-0.4,2.4-0.8c2.9-1.3,4.7-3.3,5.4-5.9C193.2,160.1,187.3,152.4,187.1,152.1z M161.6,176.2
		c-0.7,2-2.2,3.4-4.5,4.3c-0.5,0.2-1.1,0.4-1.6,0.5l0,0c-6.6,1.4-10.4-6.2-11.6-9.2l16.3-6.3c0.3,0.6,0.6,1.4,0.9,2.3
		c0,0.1,0.1,0.2,0.1,0.3C162,170.5,162.5,173.6,161.6,176.2z M188.9,165.8c-0.5,1.8-1.7,3.1-3.8,4.1c-0.6,0.3-1.2,0.5-1.8,0.6
		c-6.6,1.4-11.2-6.3-12.8-9.4l15-6.5C186.8,156.6,189.9,161.8,188.9,165.8z"/>
	<circle class="st11" cx="154.9" cy="171.5" r="2.6"/>
	<circle class="st11" cx="181.6" cy="161.2" r="2.6"/>
	<path class="st12" d="M164.9,180.3c6.2,1,11.5-0.8,14.3-6.5"/>
	<g>
		<path class="st13" d="M169.5,158.3l17.4-7.5c0,0,10.3,13.4-0.3,18.2C175.8,173.8,169.5,158.3,169.5,158.3z"/>
		<path class="st13" d="M161.8,161.8L143,169c0,0,4.7,15,15.5,10.8C169.2,175.4,161.8,161.8,161.8,161.8z"/>
		<path class="st13" d="M163.3,165.6c1.5-3.5,3.6-5.1,7.8-3.9"/>
	</g>
	<g>
		<path class="st6" d="M179.1,188.9c-0.1-0.5,0-1,0.2-1.4c0.7-1.1,1.7-2.5,3.1-3.8c1.1-1,2.1-1.7,3.1-2.3c0.9-0.5,2.1-0.2,2.6,0.7
			c0.8,1.4,1.6,3.2,2.2,5.3c0.4,1.4,0.7,2.6,0.9,3.8c0.2,1.3-0.9,2.4-2.2,2.1c-1.1-0.2-2.3-0.3-3.7-0.4c-1.3,0-2.4,0.1-3.5,0.2
			c-1,0.2-1.9-0.5-2.1-1.5L179.1,188.9z"/>
		<path class="st6" d="M174,191c-0.1-0.7-0.6-1.2-1.3-1.4c-1.5-0.5-3.4-1-5.5-1.2c-1.9-0.3-3.6-0.3-5.2-0.3c-1.3,0-2.1,1.3-1.8,2.5
			c0.4,1.4,1,3,1.7,4.6c0.8,1.8,1.6,3.5,2.4,5c0.6,1.1,2.2,1.3,3,0.4c1-1.1,2.3-2.3,3.7-3.4c0.8-0.6,1.6-1.2,2.4-1.7
			c0.7-0.4,1-1.2,0.8-2L174,191z"/>
		<path class="st6" d="M178.6,197.2L178.6,197.2c-2.1,0.7-4.4-0.4-5.1-2.5l-1-3c-0.7-2.1,0.4-4.4,2.5-5.1l0,0
			c2.1-0.7,4.4,0.4,5.1,2.5l1,3C181.8,194.2,180.7,196.5,178.6,197.2z"/>
	</g>
	<g>
		<defs>
			<path id="SVGID_1_" d="M128.8,160.2c28.7,42.6,29,62.6,32.7,86.9c0.1,0.8,1,1.2,1.7,0.9c12.8-6.7,34.4-14.3,51.2-13.1
				c1.1,0.1,1.9-0.8,1.8-1.8c-4.5-54.7-25.4-85.4-31.3-93.5c0,0,3.9-14.1-7.2-18.7c-0.3-0.1-0.7,0.2-0.6,0.5
				c2.5,7.4-0.6,13.9-0.6,13.9c-0.5,0.3-1.6-8.3-5-9.3c-0.3-0.1-0.6,0.2-0.5,0.5C173.3,151,142.9,161.1,128.8,160.2"/>
		</defs>
		<clipPath id="SVGID_2_">
			<use xlink:href="#SVGID_1_"  style="overflow:visible;"/>
		</clipPath>
		<path class="st14" d="M120,161.3c-9-7.8-19.1,23.7,24.1,4.4c39.5-17.6,3.4-44.4,2.3-21.4c-6.9-4.2-11.4-21.7-21.9-11.5
			c-6,5.9,0,12.7,0,12.7s-7.3-9.5-10.1-6.6C109.6,143.9,120,161.3,120,161.3z"/>
		<path class="st14" d="M169.8,237.6l-5.9-5.3c-0.3-0.3-0.7-0.5-1-0.6c-0.4-0.3-0.8-0.5-1.2-0.7l-0.2-0.1c-3.5-1.5-7.5,0.2-9,3.9
			l-1.6,4c-1.4,3.7,0.3,7.9,3.8,9.4l0.2,0.1c3.5,1.5,7.5-0.2,9-3.9l1.4-3.5l1.1,1c1.1,1,2.8,0.9,3.8-0.3
			C171.1,240.3,170.9,238.6,169.8,237.6z"/>
	</g>
	<path class="st8" d="M121.9,157.9c-9-7.8-19.1,23.7,24.1,4.4c39.5-17.6,3.4-44.4,2.3-21.4c-6.9-4.2-11.4-21.7-21.9-11.5
		c-6,5.9,0,12.7,0,12.7s-7.3-9.5-10.1-6.6C111.5,140.5,121.9,157.9,121.9,157.9z"/>
	<g>
		<path class="st1" d="M121.9,157.9l-1.4-2.4c10.6-3.6,20.8-10.6,25.6-16.3l2.2,1.8C141,153,126,156.6,121.9,157.9z"/>
	</g>
	<path class="st2" d="M150.2,195.4c-14,8.6-31.5,30.5,9.5,37.1"/>
	<g>
		<path class="st3" d="M168.6,235.1l-6.1-4.1c-1.2-0.8-2.7-0.4-3.5,0.7v0c-0.8,1.2-0.4,2.7,0.7,3.5l6.1,4.1c1.2,0.8,2.7,0.4,3.5-0.7
			l0,0C170.1,237.5,169.7,235.9,168.6,235.1z"/>
		<path class="st3" d="M155.7,246.7l-0.2-0.1c-3.5-0.9-5.6-4.5-4.6-8l1-3.8c0.9-3.5,4.5-5.6,8-4.6l0.2,0.1c3.5,0.9,5.6,4.5,4.6,8
			l-1,3.8C162.8,245.5,159.2,247.6,155.7,246.7z"/>
	</g>
	<path class="st15" d="M195.1,294.1c-2.7,0.3-3.7,1.3-4.8,3.1"/>
	<path class="st15" d="M198.5,294.2c-3,0.4-4.3,1.5-5,3.4"/>
	<path class="st15" d="M201.4,294.6c-3,0.4-4.3,1.5-5,3.4"/>
	<path class="st16" d="M184.6,299.4c2.1-0.1,0.6-0.6,2.6-2c1.3-1,1.4-1.1,0.2-1.2c-1.2-0.1-2.5-1.3-4.2-0.1
		C181.4,297.1,182,299.5,184.6,299.4z"/>
	<g>
		<defs>
			<path id="SVGID_3_" d="M184.6,299.4c2.5-0.1,2.1-1.5,5.3-3.9c-0.3-2.3-0.8-8.6-2-8.3c-2.2,0.6-6-1.3-7.7-0.2
				c-0.5,0.3,2.2,9.8,2,10.2C181.9,298.3,182.8,299.4,184.6,299.4z"/>
		</defs>
		<clipPath id="SVGID_4_">
			<use xlink:href="#SVGID_3_"  style="overflow:visible;"/>
		</clipPath>
		<line class="st17" x1="185.4" y1="289.6" x2="187.3" y2="300.4"/>
	</g>
	<g>
		<defs>
			<path id="SVGID_5_" d="M168.3,293.3c-0.9-3-4.1-1.6-5.1-4.7c-1.1-3.1,2-3.6,1.7-4.7l12.9-4.6l2.9,9.8L168.3,293.3z"/>
		</defs>
		<clipPath id="SVGID_6_">
			<use xlink:href="#SVGID_5_"  style="overflow:visible;"/>
		</clipPath>
		<path class="st18" d="M173.2,285.2c-2.7,0.9-10,3.4-10,3.4"/>
	</g>
	<polygon class="st4" points="182.3,284.2 182.6,285.8 186.8,284.4 186.4,282.3 	"/>
	<path class="st8" d="M192.6,294.2c-0.4-0.5-1.3-1.5-2.1-1.3s-3.5,1.4-3.4,2.7c0.1,0.6,0.4,1,0.5,1.8
		C187.8,298,191.6,294.3,192.6,294.2z"/>
	<path class="st8" d="M168.3,293.3c0,0-0.1-1.5,0.3-2.1c0.7-1.2-0.3-2.2-3-0.3L168.3,293.3z"/>
	<path class="st15" d="M169.9,299.9c-0.7-0.7-1.9-0.7-2.7-0.5"/>
	<path class="st15" d="M169.4,297.4c-0.6-0.4-1.9-0.7-2.7-0.5"/>
	<path class="st15" d="M168.9,295c-0.8-0.5-1.9-0.7-2.7-0.5"/>
</g>
</svg>
